<svg width="32" height="26" viewBox="0 0 32 26" fill="none" xmlns="http://www.w3.org/2000/svg">
<path d="M13.4145 20.2667L7.88117 23.6C7.63672 23.7556 7.38117 23.8222 7.1145 23.8C6.84783 23.7778 6.6145 23.6889 6.4145 23.5333C6.2145 23.3778 6.05895 23.1836 5.94783 22.9507C5.83672 22.7178 5.8145 22.4564 5.88117 22.1667L7.34783 15.8667L2.44783 11.6333C2.22561 11.4333 2.08695 11.2053 2.03183 10.9493C1.97672 10.6933 1.99317 10.4436 2.08117 10.2C2.16917 9.95644 2.3025 9.75644 2.48117 9.6C2.65983 9.44355 2.90428 9.34356 3.2145 9.3L9.68117 8.73333L12.1812 2.8C12.2923 2.53333 12.4647 2.33333 12.6985 2.2C12.9323 2.06667 13.1709 2 13.4145 2C13.6581 2 13.8967 2.06667 14.1305 2.2C14.3643 2.33333 14.5367 2.53333 14.6478 2.8L17.1478 8.73333L23.6145 9.3C23.9256 9.34444 24.1701 9.44444 24.3478 9.6C24.5256 9.75555 24.6589 9.95556 24.7478 10.2C24.8367 10.4444 24.8536 10.6947 24.7985 10.9507C24.7434 11.2067 24.6043 11.4342 24.3812 11.6333L19.4812 15.8667L20.9478 22.1667C21.0145 22.4556 20.9923 22.7169 20.8812 22.9507C20.7701 23.1844 20.6145 23.3787 20.4145 23.5333C20.2145 23.688 19.9812 23.7769 19.7145 23.8C19.4478 23.8231 19.1923 23.7564 18.9478 23.6L13.4145 20.2667Z" fill="#EC9913"/>
</svg>
