<svg width="166" height="26" viewBox="0 0 166 26" fill="none" xmlns="http://www.w3.org/2000/svg">
<path d="M12.5754 17.6727L8.9178 19.9797C8.75622 20.0874 8.5873 20.1335 8.41103 20.1181C8.23476 20.1027 8.08053 20.0412 7.94833 19.9336C7.81612 19.8259 7.7133 19.6915 7.63985 19.5303C7.56641 19.3691 7.55172 19.1882 7.59579 18.9877L8.56527 14.6274L5.32633 11.6976C5.17943 11.5591 5.08777 11.4013 5.05135 11.2242C5.01492 11.047 5.02579 10.8741 5.08396 10.7055C5.14212 10.537 5.23026 10.3986 5.34836 10.2903C5.46646 10.182 5.62804 10.1128 5.8331 10.0826L10.1076 9.69046L11.7601 5.58398C11.8336 5.39942 11.9476 5.261 12.1021 5.16872C12.2566 5.07644 12.4144 5.0303 12.5754 5.0303C12.7364 5.0303 12.8941 5.07644 13.0487 5.16872C13.2032 5.261 13.3172 5.39942 13.3906 5.58398L15.0431 9.69046L19.3177 10.0826C19.5233 10.1134 19.6849 10.1826 19.8024 10.2903C19.9199 10.3979 20.0081 10.5364 20.0668 10.7055C20.1256 10.8747 20.1367 11.0479 20.1003 11.2251C20.0639 11.4023 19.9719 11.5597 19.8244 11.6976L16.5855 14.6274L17.555 18.9877C17.599 19.1876 17.5844 19.3685 17.5109 19.5303C17.4375 19.6921 17.3346 19.8265 17.2024 19.9336C17.0702 20.0406 16.916 20.1021 16.7397 20.1181C16.5635 20.1341 16.3945 20.088 16.233 19.9797L12.5754 17.6727Z" fill="white"/>
<path d="M47.7875 17.6727L44.1299 19.9797C43.9683 20.0874 43.7994 20.1335 43.6232 20.1181C43.4469 20.1027 43.2927 20.0412 43.1604 19.9336C43.0282 19.8259 42.9254 19.6915 42.852 19.5303C42.7785 19.3691 42.7638 19.1882 42.8079 18.9877L43.7774 14.6274L40.5384 11.6976C40.3916 11.5591 40.2999 11.4013 40.2635 11.2242C40.227 11.047 40.2379 10.8741 40.2961 10.7055C40.3542 10.537 40.4424 10.3986 40.5605 10.2903C40.6786 10.182 40.8402 10.1128 41.0452 10.0826L45.3197 9.69046L46.9723 5.58398C47.0457 5.39942 47.1597 5.261 47.3142 5.16872C47.4688 5.07644 47.6265 5.0303 47.7875 5.0303C47.9485 5.0303 48.1063 5.07644 48.2608 5.16872C48.4153 5.261 48.5293 5.39942 48.6028 5.58398L50.2553 9.69046L54.5298 10.0826C54.7354 10.1134 54.897 10.1826 55.0145 10.2903C55.132 10.3979 55.2202 10.5364 55.2789 10.7055C55.3377 10.8747 55.3488 11.0479 55.3124 11.2251C55.276 11.4023 55.184 11.5597 55.0366 11.6976L51.7976 14.6274L52.7671 18.9877C52.8112 19.1876 52.7965 19.3685 52.723 19.5303C52.6496 19.6921 52.5468 19.8265 52.4146 19.9336C52.2824 20.0406 52.1281 20.1021 51.9519 20.1181C51.7756 20.1341 51.6067 20.088 51.4451 19.9797L47.7875 17.6727Z" fill="white"/>
<path d="M82.9996 17.6727L79.3421 19.9797C79.1805 20.0874 79.0115 20.1335 78.8353 20.1181C78.659 20.1027 78.5048 20.0412 78.3726 19.9336C78.2404 19.8259 78.1375 19.6915 78.0641 19.5303C77.9907 19.3691 77.976 19.1882 78.02 18.9877L78.9895 14.6274L75.7506 11.6976C75.6037 11.5591 75.512 11.4013 75.4756 11.2242C75.4392 11.047 75.45 10.8741 75.5082 10.7055C75.5664 10.537 75.6545 10.3986 75.7726 10.2903C75.8907 10.182 76.0523 10.1128 76.2573 10.0826L80.5319 9.69046L82.1844 5.58398C82.2578 5.39942 82.3718 5.261 82.5263 5.16872C82.6809 5.07644 82.8386 5.0303 82.9996 5.0303C83.1606 5.0303 83.3184 5.07644 83.4729 5.16872C83.6274 5.261 83.7414 5.39942 83.8149 5.58398L85.4674 9.69046L89.7419 10.0826C89.9476 10.1134 90.1091 10.1826 90.2267 10.2903C90.3442 10.3979 90.4323 10.5364 90.4911 10.7055C90.5498 10.8747 90.561 11.0479 90.5245 11.2251C90.4881 11.4023 90.3962 11.5597 90.2487 11.6976L87.0097 14.6274L87.9792 18.9877C88.0233 19.1876 88.0086 19.3685 87.9352 19.5303C87.8617 19.6921 87.7589 19.8265 87.6267 19.9336C87.4945 20.0406 87.3402 20.1021 87.164 20.1181C86.9877 20.1341 86.8188 20.088 86.6572 19.9797L82.9996 17.6727Z" fill="white"/>
<path d="M118.212 17.6727L114.554 19.9797C114.393 20.0874 114.224 20.1335 114.047 20.1181C113.871 20.1027 113.717 20.0412 113.585 19.9336C113.452 19.8259 113.35 19.6915 113.276 19.5303C113.203 19.3691 113.188 19.1882 113.232 18.9877L114.202 14.6274L110.963 11.6976C110.816 11.5591 110.724 11.4013 110.688 11.2242C110.651 11.047 110.662 10.8741 110.72 10.7055C110.778 10.537 110.867 10.3986 110.985 10.2903C111.103 10.182 111.264 10.1128 111.469 10.0826L115.744 9.69046L117.397 5.58398C117.47 5.39942 117.584 5.261 117.738 5.16872C117.893 5.07644 118.051 5.0303 118.212 5.0303C118.373 5.0303 118.53 5.07644 118.685 5.16872C118.84 5.261 118.954 5.39942 119.027 5.58398L120.68 9.69046L124.954 10.0826C125.16 10.1134 125.321 10.1826 125.439 10.2903C125.556 10.3979 125.644 10.5364 125.703 10.7055C125.762 10.8747 125.773 11.0479 125.737 11.2251C125.7 11.4023 125.608 11.5597 125.461 11.6976L122.222 14.6274L123.191 18.9877C123.235 19.1876 123.221 19.3685 123.147 19.5303C123.074 19.6921 122.971 19.8265 122.839 19.9336C122.707 20.0406 122.552 20.1021 122.376 20.1181C122.2 20.1341 122.031 20.088 121.869 19.9797L118.212 17.6727Z" fill="white"/>
<path d="M153.424 17.6727L149.766 19.9797C149.605 20.0874 149.436 20.1335 149.26 20.1181C149.083 20.1027 148.929 20.0412 148.797 19.9336C148.665 19.8259 148.562 19.6915 148.488 19.5303C148.415 19.3691 148.4 19.1882 148.444 18.9877L149.414 14.6274L146.175 11.6976C146.028 11.5591 145.936 11.4013 145.9 11.2242C145.863 11.047 145.874 10.8741 145.932 10.7055C145.991 10.537 146.079 10.3986 146.197 10.2903C146.315 10.182 146.477 10.1128 146.682 10.0826L150.956 9.69046L152.609 5.58398C152.682 5.39942 152.796 5.261 152.951 5.16872C153.105 5.07644 153.263 5.0303 153.424 5.0303C153.585 5.0303 153.743 5.07644 153.897 5.16872C154.052 5.261 154.166 5.39942 154.239 5.58398L155.892 9.69046L160.166 10.0826C160.372 10.1134 160.533 10.1826 160.651 10.2903C160.768 10.3979 160.857 10.5364 160.915 10.7055C160.974 10.8747 160.985 11.0479 160.949 11.2251C160.912 11.4023 160.82 11.5597 160.673 11.6976L157.434 14.6274L158.403 18.9877C158.448 19.1876 158.433 19.3685 158.359 19.5303C158.286 19.6921 158.183 19.8265 158.051 19.9336C157.919 20.0406 157.764 20.1021 157.588 20.1181C157.412 20.1341 157.243 20.088 157.081 19.9797L153.424 17.6727Z" fill="white"/>
</svg>
